<?xml version="1.0" encoding="UTF-8"?>
<svg version="1.1" xmlns="http://www.w3.org/2000/svg" width="512" height="512">
<path d="M0 0 C1.02287109 0.25740967 1.02287109 0.25740967 2.06640625 0.52001953 C27.70566864 7.02871613 48.73322081 20.0461709 68 38 C69.11181641 39.01320313 69.11181641 39.01320313 70.24609375 40.046875 C96.34066296 64.79252709 109.80371997 101.59392632 111.1875 137.02734375 C111.82216494 177.36823397 96.86398669 214.1040138 69 243 C67.92685547 244.16789062 67.92685547 244.16789062 66.83203125 245.359375 C41.42647973 272.24254771 4.41752631 284.51831069 -31.72509766 285.94091797 C-66.4858608 286.56803178 -100.48089676 274.41916569 -127 252 C-127.51014648 251.56961426 -128.02029297 251.13922852 -128.54589844 250.69580078 C-152.26365501 230.41463734 -167.39426443 204.13138908 -175 174 C-175.17789063 173.33452148 -175.35578125 172.66904297 -175.5390625 171.98339844 C-180.61252053 152.42441242 -180.22298794 127.46536747 -175 108 C-174.80132324 107.22333984 -174.60264648 106.44667969 -174.39794922 105.64648438 C-168.66749535 83.61750367 -158.82936831 64.32001512 -144 47 C-143.29101562 46.16855469 -142.58203125 45.33710938 -141.8515625 44.48046875 C-121.9664553 21.76958316 -96.73302457 8.21089999 -68 0 C-66.91960449 -0.31372559 -66.91960449 -0.31372559 -65.81738281 -0.63378906 C-46.11296576 -6.03484836 -19.62032147 -5.2195086 0 0 Z M-117.75 66.8125 C-139.36880675 91.87606167 -146.52669157 121.575979 -145 154 C-143.31595657 175.64211708 -133.06416503 196.78452865 -119 213 C-118.33613281 213.80824219 -117.67226562 214.61648438 -116.98828125 215.44921875 C-98.51161733 237.20455131 -70.78101583 250.26160368 -42.52832031 252.65820312 C-13.40114395 254.63081087 15.97950494 245.43493688 38.28125 226.43359375 C62.70472105 204.57177987 76.24615994 176.66601804 78.18359375 143.89453125 C78.84762859 114.95042444 68.13127196 87.53233435 49 66 C48.19949219 65.09894531 47.39898437 64.19789063 46.57421875 63.26953125 C28.18218105 43.85404137 1.08488012 30.56814149 -25.75 29.6640625 C-62.11600918 29.20556273 -92.48041504 40.09768748 -117.75 66.8125 Z " fill="#000000" transform="translate(290,115)"/>
<path d="M0 0 C5.79835896 4.81437438 11.12281785 9.99248432 16.43359375 15.3359375 C17.31153091 16.21528961 18.18946808 17.09464172 19.0940094 18.00064087 C21.87754412 20.78974058 24.65756769 23.58231018 27.4375 26.375 C29.33216665 28.2752542 31.2275963 30.17474653 33.12304688 32.07421875 C37.75135161 36.71350604 42.37678421 41.35564167 47 46 C42.46068023 51.34809596 37.78568714 56.48909476 32.875 61.5 C31.82119141 62.60988281 31.82119141 62.60988281 30.74609375 63.7421875 C30.06417969 64.43570313 29.38226563 65.12921875 28.6796875 65.84375 C27.76292236 66.79024414 27.76292236 66.79024414 26.82763672 67.75585938 C25 69 25 69 23.16184998 68.82759094 C20.31065226 67.7361066 18.75330343 66.14911765 16.58276367 64.00268555 C15.28703682 62.73082649 15.28703682 62.73082649 13.96513367 61.43327332 C13.04206924 60.51041031 12.11900482 59.5875473 11.16796875 58.63671875 C10.20751301 57.68336403 9.24675938 56.73030932 8.28572083 55.77754211 C6.27583414 53.78109206 4.27197451 51.77881203 2.27172852 49.77270508 C-0.2951837 47.19988395 -2.87990878 44.6458161 -5.46986866 42.09622478 C-7.45759449 40.13431044 -9.43377475 38.16107935 -11.40680504 36.18439674 C-12.81707406 34.7766492 -14.23842607 33.38003307 -15.65986633 31.98356628 C-16.50792343 31.12620377 -17.35598053 30.26884125 -18.22973633 29.38549805 C-18.9837825 28.63350632 -19.73782867 27.88151459 -20.51472473 27.10673523 C-22 25 -22 25 -21.86322021 22.87477112 C-20.54901449 20.02053427 -18.54297612 18.20986876 -16.30859375 16.015625 C-15.61154076 15.32493927 -15.61154076 15.32493927 -14.90040588 14.62030029 C-13.41968181 13.15632189 -11.92885481 11.70313959 -10.4375 10.25 C-9.42965336 9.25720551 -8.42248367 8.2637233 -7.41601562 7.26953125 C-4.95180539 4.83833527 -2.47842671 2.41671132 0 0 Z " fill="#000000" transform="translate(391,368)"/>
<path d="M0 0 C2.85423685 1.31420573 4.66490235 3.32024409 6.85914612 5.55462646 C7.54983185 6.25167946 7.54983185 6.25167946 8.25447083 6.96281433 C9.71844923 8.4435384 11.17163152 9.93436541 12.62477112 11.42572021 C13.61756561 12.43356686 14.61104782 13.44073654 15.60523987 14.44720459 C18.03643584 16.91141483 20.4580598 19.38479351 22.87477112 21.86322021 C18.06039674 27.66157917 12.8822868 32.98603807 7.53883362 38.29681396 C6.65948151 39.17475113 5.78012939 40.05268829 4.87413025 40.95722961 C2.08503054 43.74076433 -0.70753906 46.5207879 -3.50022888 49.30072021 C-5.40048309 51.19538687 -7.29997541 53.09081651 -9.19944763 54.98626709 C-13.83873492 59.61457183 -18.48087055 64.24000442 -23.12522888 68.86322021 C-28.47332484 64.32390044 -33.61432364 59.64890735 -38.62522888 54.73822021 C-39.73511169 53.68441162 -39.73511169 53.68441162 -40.86741638 52.60931396 C-41.56093201 51.9273999 -42.25444763 51.24548584 -42.96897888 50.54290771 C-43.91547302 49.62614258 -43.91547302 49.62614258 -44.88108826 48.69085693 C-46.12522888 46.86322021 -46.12522888 46.86322021 -45.95281982 45.02507019 C-44.86133548 42.17387248 -43.27434653 40.61652365 -41.12791443 38.44598389 C-39.85605537 37.15025703 -39.85605537 37.15025703 -38.5585022 35.82835388 C-37.63563919 34.90528946 -36.71277618 33.98222504 -35.76194763 33.03118896 C-34.80859291 32.07073322 -33.8555382 31.1099796 -32.902771 30.14894104 C-30.90632094 28.13905436 -28.90404091 26.13519473 -26.89793396 24.13494873 C-24.32511283 21.56803651 -21.77104499 18.98331144 -19.22145367 16.39335155 C-17.25953932 14.40562573 -15.28630823 12.42944547 -13.30962563 10.45641518 C-11.90187808 9.04614615 -10.50526195 7.62479414 -9.10879517 6.20335388 C-8.25143265 5.35529678 -7.39407013 4.50723969 -6.51072693 3.63348389 C-5.7587352 2.87943771 -5.00674347 2.12539154 -4.23196411 1.34849548 C-2.12522888 -0.13677979 -2.12522888 -0.13677979 0 0 Z " fill="#000000" transform="translate(121.12522888183594,369.13677978515625)"/>
<path d="M0 0 C5.34809596 4.53931977 10.48909476 9.21431286 15.5 14.125 C16.23992187 14.82753906 16.97984375 15.53007813 17.7421875 16.25390625 C18.43570313 16.93582031 19.12921875 17.61773437 19.84375 18.3203125 C20.47474609 18.93148926 21.10574219 19.54266602 21.75585938 20.17236328 C23 22 23 22 22.82759094 23.83815002 C21.7361066 26.68934774 20.14911765 28.24669657 18.00268555 30.41723633 C16.73082649 31.71296318 16.73082649 31.71296318 15.43327332 33.03486633 C14.51041031 33.95793076 13.5875473 34.88099518 12.63671875 35.83203125 C11.68336403 36.79248699 10.73030932 37.75324062 9.77754211 38.71427917 C7.78109206 40.72416586 5.77881203 42.72802549 3.77270508 44.72827148 C1.19988395 47.2951837 -1.3541839 49.87990878 -3.90377522 52.46986866 C-5.86568956 54.45759449 -7.83892065 56.43377475 -9.81560326 58.40680504 C-11.2233508 59.81707406 -12.61996693 61.23842607 -14.01643372 62.65986633 C-14.87379623 63.50792343 -15.73115875 64.35598053 -16.61450195 65.22973633 C-17.74248955 66.36080559 -17.74248955 66.36080559 -18.89326477 67.51472473 C-21 69 -21 69 -23.12522888 68.86322021 C-25.97946573 67.54901449 -27.79013124 65.54297612 -29.984375 63.30859375 C-30.44483215 62.84389175 -30.90528931 62.37918976 -31.37969971 61.90040588 C-32.84367811 60.41968181 -34.29686041 58.92885481 -35.75 57.4375 C-36.74279449 56.42965336 -37.7362767 55.42248367 -38.73046875 54.41601562 C-41.16166473 51.95180539 -43.58328868 49.47842671 -46 47 C-41.18562562 41.20164104 -36.00751568 35.87718215 -30.6640625 30.56640625 C-29.78471039 29.68846909 -28.90535828 28.81053192 -27.99935913 27.9059906 C-25.21025942 25.12245588 -22.41768982 22.34243231 -19.625 19.5625 C-17.7247458 17.66783335 -15.82525347 15.7724037 -13.92578125 13.87695312 C-9.28649396 9.24864839 -4.64435833 4.62321579 0 0 Z " fill="#000000" transform="translate(414,74)"/>
<path d="M0 0 C2.85119771 1.09148434 4.40854654 2.67847329 6.5790863 4.8249054 C7.87481316 6.09676445 7.87481316 6.09676445 9.19671631 7.39431763 C10.11978073 8.31718063 11.04284515 9.24004364 11.99388123 10.19087219 C12.95433697 11.14422691 13.91509059 12.09728162 14.87612915 13.05004883 C16.88601583 15.04649888 18.88987546 17.04877891 20.89012146 19.05488586 C23.45703368 21.62770699 26.04175875 24.18177484 28.63171864 26.73136616 C30.61944446 28.6932805 32.59562472 30.66651159 34.56865501 32.6431942 C35.97892404 34.05094175 37.40027605 35.44755788 38.82171631 36.84402466 C39.66977341 37.70138718 40.51783051 38.55874969 41.3915863 39.4420929 C42.14563248 40.19408463 42.89967865 40.94607635 43.67657471 41.72085571 C45.16184998 43.82759094 45.16184998 43.82759094 45.02507019 45.95281982 C43.71086446 48.80705667 41.7048261 50.61772218 39.47044373 52.81196594 C39.00574173 53.2724231 38.54103973 53.73288025 38.06225586 54.20729065 C36.58153179 55.67126906 35.09070478 57.12445135 33.59934998 58.57759094 C32.59150333 59.57038543 31.58433365 60.56386764 30.5778656 61.55805969 C28.11365536 63.98925567 25.64027668 66.41087962 23.16184998 68.82759094 C17.36349102 64.01321657 12.03903212 58.83510662 6.72825623 53.49165344 C5.85031906 52.61230133 4.9723819 51.73294922 4.06784058 50.82695007 C1.28430586 48.03785036 -1.49571771 45.24528076 -4.27565002 42.45259094 C-6.17031668 40.55233674 -8.06574632 38.65284441 -9.9611969 36.75337219 C-14.58950164 32.1140849 -19.21493423 27.47194927 -23.83815002 22.82759094 C-19.29883025 17.47949498 -14.62383716 12.33849619 -9.71315002 7.32759094 C-9.01061096 6.58766907 -8.3080719 5.84774719 -7.58424377 5.08540344 C-6.90232971 4.39188782 -6.22041565 3.69837219 -5.51783752 2.98384094 C-4.90666077 2.35284485 -4.29548401 1.72184875 -3.66578674 1.07173157 C-1.83815002 -0.17240906 -1.83815002 -0.17240906 0 0 Z " fill="#000000" transform="translate(97.83815002441406,75.17240905761719)"/>
<path d="M0 0 C10.56 0 21.12 0 32 0 C32 21.12 32 42.24 32 64 C21.44 64 10.88 64 0 64 C0 42.88 0 21.76 0 0 Z " fill="#000000" transform="translate(240,432)"/>
<path d="M0 0 C21.12 0 42.24 0 64 0 C64 10.56 64 21.12 64 32 C42.88 32 21.76 32 0 32 C0 21.44 0 10.88 0 0 Z " fill="#000000" transform="translate(432,240)"/>
<path d="M0 0 C21.12 0 42.24 0 64 0 C64 10.56 64 21.12 64 32 C42.88 32 21.76 32 0 32 C0 21.44 0 10.88 0 0 Z " fill="#000000" transform="translate(16,240)"/>
<path d="M0 0 C10.56 0 21.12 0 32 0 C32 21.12 32 42.24 32 64 C21.44 64 10.88 64 0 64 C0 42.88 0 21.76 0 0 Z " fill="#000000" transform="translate(240,16)"/>
</svg>
