<svg xmlns="http://www.w3.org/2000/svg" width="612" height="408"><path fill="#F7E903" d="m109 37 1 2 2.957-.254 3.856-.309 3.832-.316C124 38 124 38 127 39l1-2v2h13l1-2v2l2.957-.254 3.856-.309 3.832-.316C156 38 156 38 159 39l1-2v2h13l1-2v2l2.957-.254 3.856-.309 3.832-.316C188 38 188 38 191 39l1-2v2h13l1-2v2l2.957-.254 3.856-.309 3.832-.316C220 38 220 38 223 39l1-2v2h13c1.231 3.694.644 6.206 0 10-28.629 1.584-28.629 1.584-43 0l1.5 3.188c1.328 3.067 1.807 5.433 1.5 8.812l2 1c.781 2.074.781 2.074 1.5 4.688l.781 2.753L202 72c1.314 4.107 2.783 8.14 4.316 12.168.965 2.584 1.799 5.2 2.621 7.832.97 3.125.97 3.125 3.063 6 .258 2.695.089 5.285 0 8l2 1c1.484 3.153 2.43 6.409 3.367 9.758q1.29 4.567 2.633 9.117l1 3.43c.701 2.83.701 2.83 3 3.695l1 7c.644 1.998 1.396 3.926 2.176 5.875 1.176 3.033 2.12 6.134 3.078 9.242.681 2.083.681 2.083 2.746 3.883l-1 1c1.27 4.415 1.27 4.415 4 8v4a78 78 0 0 0 2 5c1.656 3.934 2.828 7.897 4 12l1 2.438c1.118 2.865 1.787 5.722 2.492 8.71.47 1.963.47 1.963 1.633 4.04 1.132 2.345 1.018 4.243.875 6.812l2 1c.781 2.18.781 2.18 1.5 4.875.88 3.28 1.585 5.253 3.5 8.125.598 2.05.598 2.05 1.063 4.313l.503 2.394c.364 1.922.657 3.857.934 5.793l.5 2.5 2 1c1.445 3.613 2 6.067 2 10l2 1-1 2 2 1-1 3 2 1c1.58 3.067 2.153 5.86 2.5 9.25l.5 3.75 2 1c.393 2.323.507 4.618.656 6.969L272 282l2 1a94 94 0 0 1 2.125 6.063l1.07 3.347L278 295l.375-2.437L279 290l2-1a91 91 0 0 0 2.188-7.125l.576-1.977c1.24-4.616 1.331-8.25.236-12.898l-2-2a119 119 0 0 1-1.5-7.5l-.773-4.36-.374-2.146c-.458-2.588-.961-5.167-1.478-7.744l-.445-2.234q-.42-1.974-.914-3.93c-.632-2.557-1.146-5.124-1.641-7.711l-.57-2.914C274 224 274 224 275 222h-2l-2-5 1-1-.52-1.773c-.595-2.76-.08-4.197.832-6.852 1.074-3.326 1.987-6.564 2.625-10 .861-4.565 1.934-9.058 3.063-13.562l.504-2.017A376 376 0 0 1 282 169h2v-2a794 794 0 0 1 5.313-3l2.988-1.687C295 161 295 161 298 161l1-2 1.813-.812c2.407-1.113 2.407-1.113 4.125-3.75C307 152 307 152 309.75 151.188L312 151a109 109 0 0 0-1-7l-2-1-1-2h2l-1-3c.331-5.745 1.994-9.249 5-14h2l1.875-1.937c2.843-2.76 4.662-2.948 8.5-3.25 3.116.222 5.707 1.101 8.625 2.187l.25-2.937c.548-3.906 2.02-7.034 3.695-10.575 1.843-4.348 2.926-8.912 4.055-13.488h2l-1-3c.637-2.242.637-2.242 1.688-4.875a229 229 0 0 0 4.562-13.062l1.016-3.215c.9-3.003.9-3.003.734-6.848h2l.375-2.562c.642-3.53 1.64-6.989 2.625-10.438h-41V39h3l1-2v2h13l1-2v2l2.957-.254 3.856-.309 3.832-.316C348 38 348 38 351 39l1-2v2h13l1-2v2l2.957-.254 3.856-.309 3.832-.316C380 38 380 38 383 39l1-2v2h13l1-2v2h7c1.491 2.982 1.12 5.716 1 9-3.11 3.11-11.607 2.075-15.687 2.098q-3.657-.01-7.313-.035l-3.793-.014Q374.603 50.03 370 50l-.96 3.781c-.18.702-.358 1.404-.541 2.127-.639 2.678-1.09 5.37-1.499 8.092h-2l1 4h-2l-.375 2.563c-.65 3.57-1.612 6.955-2.625 10.437a171 171 0 0 0-1 5h-2l-.375 3.563c-.49 3.978-1.43 7.615-2.625 11.437h-2l-.297 1.8c-1.05 5.823-2.645 11.15-4.8 16.657-.89 2.508-1.385 4.939-1.903 7.543l-1.5 3.188c-1.338 2.958-1.762 5.515-2 8.75-.53 6.963-2.889 12.153-6.5 18.062-.696 2.191-.696 2.191-1 4l2 .25c9.561 2.39 9.561 2.39 12.367 6.992 1.616 3.881 2.732 7.649 3.258 11.82L353 183l2 1v20l2 1c.563 2.004.563 2.004 1 4.563.573 3.208 1.216 6.308 2.125 9.437 1.216 4.637 1.05 9.24.875 14l2 1c.852 2.723.852 2.723 1.625 6.063.26 1.104.52 2.209.79 3.347L366 246h2c.164 4.917.191 7.617-2 12a64 64 0 0 0-.25 4.5c-.355 3.786-.516 4.277-3.437 7.063-3.437 1.49-5.615 1.79-9.313 1.437-1.14-4.785-.62-7.425 1-12 .168-3.25.168-3.25 0-6h2c.502-6.109-.838-9.34-4-14.312-4-6.494-4-6.494-4-8.688l-2-1 .438 1.938c.465 2.533.793 5.003 1.062 7.562.458 4.26.925 8.159 2.625 12.125C351 253 351 253 350 256h-2l-.437 3.813-.29 2.48q-.276 2.749-.421 5.508c-.367 6.318-1.478 9.882-4.852 15.199-1.129 3.386-1.937 6.603-2.5 10.125-.502 2.886-1.381 5.177-2.5 7.875-2.331 6.347-2.199 12.283-2 19h-2l1 4h-2l-.402 3.36-.536 4.39-.263 2.21c-.69 5.619-.69 5.619-1.329 8.08-.64 2.67-.532 5.226-.47 7.96l2 1v3h3l.25 2.75c1.127 4.883 3.696 6.548 7.75 9.25.188 3.625.188 3.625 0 7l-2.937.375L336 374l-1 2v-2h-8l-.75-2.375c-1.48-3.106-2.221-3.254-5.25-4.625a162 162 0 0 1-4.187-2.437l-2.106-1.247C313 362 313 362 312 359a163 163 0 0 1-.062-6.687l.027-3.575L312 346l-2-1c-.175-4.643.07-8.755 1-13.312.947-4.781 1.109-9.234 1.004-14.094-.006-3.605.459-7.033.996-10.594h2l-.937-2.625C312.258 298.642 312 294.105 312 288l-8 24h-2v6h-2l2 6h-2l.035 2.238c.172 19.348.172 19.348-4.035 27.762-2.227 4.796-3.28 8.786-4 14-.899 3.037-1.926 6.02-3 9-8.861.774-8.861.774-13.125-2.125-2.304-3.533-2.58-4.721-1.875-8.875.985-2.515 2.05-4.99 3.113-7.473 1.293-3.684 1.084-6.643.887-10.527l1-5c.085-2.673.045-5.324 0-8l-.586 2.371-.789 3.067-.773 3.058C276 346 276 346 274 347v5h-2l-.332 1.766C270.35 360.578 268.72 367.278 267 374l-12-1c-.315-1.062-.63-2.124-.953-3.219-2.578-8.94-2.578-8.94-6.36-17.406-1.747-3.494-2.071-5.53-1.687-9.375l-2-1c-.54-1.809-.54-1.809-1-4a252 252 0 0 0-1.375-4.062c-1.164-3.431-2.153-6.869-3.062-10.375-1.227-4.609-2.824-8.938-4.645-13.34C232.15 305.943 231 302.655 231 298l-2-1a99 99 0 0 1-1.36-4.691c-1.092-3.939-2.493-7.778-3.835-11.637C223 278 223 278 223 275l-2-1c-.507-1.624-1.003-3.252-1.434-4.898a117 117 0 0 0-4.691-13.852c-.935-2.403-1.37-4.725-1.875-7.25l-1-2.375c-1-2.625-1-2.625-1.5-6.375L210 236l-2-1a109 109 0 0 1-1-7l-3-1 1-2c-.486-2.19-.486-2.19-1.363-4.648l-.94-2.797-1.01-2.93-.974-2.906c-1.375-4.055-2.794-7.891-4.713-11.719-.515-2.664-.73-5.295-1-8l-3-1v-3l-1-2-.375-2.812c-.433-3.195-.433-3.195-2.125-5.625-1.86-3.177-1.991-5.937-2.5-9.563l-1.375-2.75c-1.393-2.786-2.17-5.02-2.937-8-1.39-5.34-3.027-10.573-4.75-15.812l-.781-2.42c-1.403-4.398-1.403-4.398-4.157-8.018l-.437-3.125c-.527-3.625-1.41-6.417-2.743-9.781-2.432-6.209-4.295-12.607-6.074-19.028-.647-2.25-.647-2.25-2.746-4.066-.527-1.848-.527-1.848-.937-4.062-1.215-5.948-3.205-11.546-5.25-17.25C153 71 153 71 153 67l-2-1a96 96 0 0 1-2.062-6.312l-1.036-3.489A187 187 0 0 1 146 49l-2.043.492c-3.469.596-6.75.638-10.27.64l-2.094.004q-2.184 0-4.367-.006c-2.219-.005-4.437 0-6.656.007q-2.129 0-4.257-.004l-3.887-.004c-2.95-.111-5.565-.44-8.426-1.129l-1-10h6zm172 288 1 2Zm-1 3 1 2Z"/><path fill="#010402" d="m319 37 1 2h13l1-2v2l2.957-.254 3.856-.309 3.832-.316C348 38 348 38 351 39l1-2v2h13l1-2v2l2.957-.254 3.856-.309 3.832-.316C380 38 380 38 383 39l1-2v2h13l1-2v2h7c1.491 2.982 1.12 5.716 1 9-3.11 3.11-11.607 2.075-15.687 2.098q-3.657-.01-7.313-.035l-3.793-.014Q374.603 50.03 370 50l-.96 3.781c-.18.702-.358 1.404-.541 2.127-.639 2.678-1.09 5.37-1.499 8.092h-2l1 4h-2l-.375 2.563c-.65 3.57-1.612 6.955-2.625 10.437a171 171 0 0 0-1 5h-2l-.375 3.563c-.49 3.978-1.43 7.615-2.625 11.437h-2l-.297 1.8c-1.05 5.823-2.645 11.15-4.8 16.657-.89 2.508-1.385 4.939-1.903 7.543l-1.5 3.188c-1.338 2.958-1.762 5.515-2 8.75-.53 6.963-2.889 12.153-6.5 18.062-.696 2.191-.696 2.191-1 4l2 .25c9.561 2.39 9.561 2.39 12.367 6.992 1.616 3.881 2.732 7.649 3.258 11.82L353 183l2 1v20l2 1c.563 2.004.563 2.004 1 4.563.573 3.208 1.216 6.308 2.125 9.437 1.216 4.637 1.05 9.24.875 14l2 1c.852 2.723.852 2.723 1.625 6.063.26 1.104.52 2.209.79 3.347L366 246h2c.164 4.917.191 7.617-2 12a64 64 0 0 0-.25 4.5c-.355 3.786-.516 4.277-3.437 7.063-3.437 1.49-5.615 1.79-9.313 1.437-1.14-4.785-.62-7.425 1-12 .168-3.25.168-3.25 0-6h2c.502-6.109-.838-9.34-4-14.312-4-6.494-4-6.494-4-8.688l-2-1 .438 1.938c.465 2.533.793 5.003 1.062 7.562.458 4.26.925 8.159 2.625 12.125C351 253 351 253 350 256h-2l-.437 3.813-.29 2.48q-.276 2.749-.421 5.508c-.367 6.318-1.478 9.882-4.852 15.199-1.129 3.386-1.937 6.603-2.5 10.125-.502 2.886-1.381 5.177-2.5 7.875-2.331 6.347-2.199 12.283-2 19h-2l1 4h-2l-.402 3.36-.536 4.39-.263 2.21c-.69 5.619-.69 5.619-1.329 8.08-.64 2.67-.532 5.226-.47 7.96l2 1v3h3l.25 2.75c1.127 4.883 3.696 6.548 7.75 9.25.188 3.625.188 3.625 0 7l-2.937.375L336 374l-1 2v-2h-8l-.75-2.375c-1.48-3.106-2.221-3.254-5.25-4.625a162 162 0 0 1-4.187-2.437l-2.106-1.247C313 362 313 362 312 359a163 163 0 0 1-.062-6.687l.027-3.575L312 346l-2-1c-.175-4.643.07-8.755 1-13.312.947-4.781 1.109-9.234 1.004-14.094-.006-3.605.459-7.033.996-10.594h2l-.937-2.625C312.258 298.642 312 294.105 312 288l-8 24h-2v6h-2l2 6h-2l.035 2.238c.172 19.348.172 19.348-4.035 27.762-2.227 4.796-3.28 8.786-4 14-.899 3.037-1.926 6.02-3 9-8.861.774-8.861.774-13.125-2.125-2.304-3.533-2.58-4.721-1.875-8.875.985-2.515 2.05-4.99 3.113-7.473 1.293-3.684 1.084-6.643.887-10.527q.49-2.502 1-5 .255-2.997.438-6c.412-5.771 1.158-11.421 2.097-17.129.36-2.22.646-4.45.902-6.683.469-2.653 1.067-4.604 2.063-7.063 1.73-4.306 2.19-8.52 2.5-13.125h2v-22h-2l-1 3-.875-3.375c-.817-3.628-.817-3.628-3.125-5.625a119 119 0 0 1-1.5-7.5l-.773-4.36-.374-2.146c-.458-2.588-.961-5.167-1.478-7.744l-.445-2.234q-.42-1.974-.914-3.93c-.632-2.557-1.146-5.124-1.641-7.711l-.57-2.914C274 224 274 224 275 222h-2l-2-5 1-1-.52-1.773c-.595-2.76-.08-4.197.832-6.852 1.074-3.326 1.987-6.564 2.625-10 .861-4.565 1.934-9.058 3.063-13.562l.504-2.017A376 376 0 0 1 282 169h2v-2a794 794 0 0 1 5.313-3l2.988-1.687C295 161 295 161 298 161l1-2 1.813-.812c2.407-1.113 2.407-1.113 4.125-3.75C307 152 307 152 309.75 151.188L312 151a109 109 0 0 0-1-7l-2-1-1-2h2l-1-3c.331-5.745 1.994-9.249 5-14h2l1.875-1.937c2.843-2.76 4.662-2.948 8.5-3.25 3.116.222 5.707 1.101 8.625 2.187l.25-2.937c.548-3.906 2.02-7.034 3.695-10.575 1.843-4.348 2.926-8.912 4.055-13.488h2l-1-3c.637-2.242.637-2.242 1.688-4.875a229 229 0 0 0 4.562-13.062l1.016-3.215c.9-3.003.9-3.003.734-6.848h2l.375-2.562c.642-3.53 1.64-6.989 2.625-10.438h-41V39h3z"/><path fill="#030402" d="m319 37 1 2h13l1-2v2l2.957-.254 3.856-.309 3.832-.316C348 38 348 38 351 39l1-2v2h13l1-2v2l2.957-.254 3.856-.309 3.832-.316C380 38 380 38 383 39l1-2v2h13l1-2v2h7c1.491 2.982 1.12 5.716 1 9-3.11 3.11-11.607 2.075-15.687 2.098q-3.657-.01-7.313-.035l-3.793-.014Q374.603 50.03 370 50l-.96 3.781c-.18.702-.358 1.404-.541 2.127-.639 2.678-1.09 5.37-1.499 8.092h-2l1 4h-2l-.375 2.563c-.65 3.57-1.612 6.955-2.625 10.437a171 171 0 0 0-1 5h-2l-.375 3.563c-.49 3.978-1.43 7.615-2.625 11.437h-2l-.297 1.8c-1.05 5.823-2.645 11.15-4.8 16.657-.89 2.508-1.385 4.939-1.903 7.543l-1.5 3.188c-1.338 2.958-1.762 5.515-2 8.75-.53 6.963-2.889 12.153-6.5 18.062-.696 2.191-.696 2.191-1 4h3c.126 11.4-.926 22.085-4.875 32.813l-.74 2.046c-1.478 3.754-2.792 6.184-6.385 8.141h-2v3l5 1c1.297 6.343 1.113 12.62 0 19-2 2-2 2-4.82 2.195l-3.305-.07-3.32-.055L315 229c-.814-2.852-1.119-5.366-1.098-8.328l.01-2.422.026-2.5.013-2.547q.02-3.102.049-6.203h4c-.188-2.445-.188-2.445-1-5l-1.89-.945c-6.276-3.138-8.958-12.825-11.11-19.055-1.762-5.313-2.393-10.022-2.437-15.562l-.1-2.21c-.04-4.016.347-6.508 2.889-9.7 2.714-2.59 3.964-3.318 7.648-3.528a109 109 0 0 0-1-7l-2-1-1-2h2l-1-3c.331-5.745 1.994-9.249 5-14h2l1.875-1.937c2.843-2.76 4.662-2.948 8.5-3.25 3.116.222 5.707 1.101 8.625 2.187l.25-2.937c.548-3.906 2.02-7.034 3.695-10.575 1.843-4.348 2.926-8.912 4.055-13.488h2l-1-3c.637-2.242.637-2.242 1.688-4.875a229 229 0 0 0 4.562-13.062l1.016-3.215c.9-3.003.9-3.003.734-6.848h2l.375-2.562c.642-3.53 1.64-6.989 2.625-10.438h-41V39h3z"/><path fill="#FAEC05" d="m319 37 1 2h13l1-2v2l2.957-.254 3.856-.309 3.832-.316C348 38 348 38 351 39l1-2v2h13l1-2v2l2.957-.254 3.856-.309 3.832-.316C380 38 380 38 383 39l1-2v2h13l1-2v2h7c1.491 2.982 1.12 5.716 1 9-3.11 3.11-11.607 2.075-15.687 2.098q-3.657-.01-7.313-.035l-3.793-.014Q374.603 50.03 370 50l-.96 3.781c-.18.702-.358 1.404-.541 2.127-.639 2.678-1.09 5.37-1.499 8.092h-2l1 4h-2l-.375 2.563c-.65 3.57-1.612 6.955-2.625 10.437a171 171 0 0 0-1 5h-2l-.375 3.563c-.49 3.978-1.43 7.615-2.625 11.437h-2l-.297 1.8c-1.05 5.823-2.645 11.15-4.8 16.657-.89 2.508-1.386 4.938-1.903 7.543l-1.5 3.313c-1.66 4.08-2.118 7.327-2.5 11.687h-1l-.078-2.887-.172-3.8-.14-3.762c-.691-4.024-1.998-5.512-4.61-8.551-1.417-5.71.383-10.5 2.91-15.582 1.934-4.291 2.965-8.86 4.09-13.418h2l-1-3c.637-2.242.637-2.242 1.688-4.875a229 229 0 0 0 4.562-13.062l1.016-3.215c.9-3.003.9-3.003.734-6.848h2l.375-2.562c.642-3.53 1.64-6.989 2.625-10.438h-41V39h3z"/><path fill="#BCB438" d="M303 159h2l.078 3.516c.446 13.958 2.481 28.043 12.922 38.484 2.67.141 5.324.042 8 0 2.633-4.92 4.64-9.557 6-15l.75-2.684c1.922-7.105 2.872-13.97 3.25-21.316h2q-.344 5.176-.734 10.348a152 152 0 0 0-.344 6.023c-.29 5.307-1.942 10.043-3.735 15.004l-.752 2.13c-1.478 3.889-2.69 6.504-6.435 8.495h-2v3l5 1c1.297 6.343 1.113 12.62 0 19-2 2-2 2-4.82 2.195l-3.305-.07-3.32-.055L315 229c-.814-2.852-1.119-5.366-1.098-8.328l.01-2.422.026-2.5.013-2.547q.02-3.102.049-6.203h4c-.188-2.445-.188-2.445-1-5l-1.89-.945c-5.69-2.845-8.081-10.983-10.313-16.563-1.849-5.781-1.926-11.365-1.86-17.367l.014-2.375q.02-2.875.049-5.75"/><path fill="#7EAC32" d="m319 37 1 2h13l1-2v2l2.957-.254 3.856-.309 3.832-.316C348 38 348 38 351 39l1-2v2h13l1-2v2l2.957-.254 3.856-.309 3.832-.316C380 38 380 38 383 39l1-2v2h13l1-2v2h7c1.491 2.982 1.12 5.716 1 9-3.11 3.11-11.607 2.075-15.687 2.098q-3.657-.01-7.313-.035l-3.793-.014Q374.603 50.03 370 50l-1 6h-1v-8h36v-7h-85v7h41v3h-2l-1 3v-4h-41V39h3z"/><path fill="#D1D510" d="M356 55h1v7l4 1-1 3a100 100 0 0 0 1 6c1.148-2.296 1.308-4.077 1.563-6.625l.253-2.477L363 61h2l2-5c1.43 2.862.6 4.934 0 8h-2l1 4h-2l-.375 2.563c-.65 3.57-1.612 6.955-2.625 10.437a171 171 0 0 0-1 5h-2l-.375 3.938c-.21 2.214-.21 2.214-.625 4.062l-2 1-1-12h2l1-4-4 1v-5h-1l-.586 1.828-.789 2.422-.773 2.39C349 84 349 84 347.938 86.032c-1.02 2.14-1.328 3.869-1.563 6.219L346 96h-2l-1 2v-4h2l-1-3c.637-2.242.637-2.242 1.688-4.875a229 229 0 0 0 4.562-13.062l1.016-3.215c.9-3.003.9-3.003.734-6.848h2l.438-2.875C355 57 355 57 356 55"/><path fill="#FCEC03" d="M319 204h4v4h4v19h-11c-1.254-3.763-1.107-7.272-1.062-11.187l.013-2.272q.02-2.77.049-5.541h4z"/><path fill="#F4E612" d="M287 271h2v22h-2v9l-2 1-2-4-5 1v-2l-3-1v-7c2 3 2 3 3 5l.375-2.437L279 290l2-1c.8-2.524 1.494-4.997 2.125-7.562.182-.711.364-1.422.55-2.155.45-1.759.888-3.52 1.325-5.283h2z"/><path fill="#E1DC22" d="M354 95c.553 2.076 1 3.844 1 6h-2l-.297 1.8c-1.05 5.823-2.645 11.15-4.8 16.657-.89 2.508-1.386 4.938-1.903 7.543l-1.5 3.313c-1.66 4.08-2.118 7.327-2.5 11.687h-1l-.078-2.887-.172-3.8-.14-3.762c-.691-4.024-1.998-5.512-4.61-8.551-1.433-5.774.425-10.7 2.977-15.848 1.416-2.978 2.209-5.962 3.023-9.152l2 3h-2l-1 11h-2l-1 9c3.386 1.51 3.386 1.51 7 2l.375-3.25c.625-3.75.625-3.75 1.645-5.684 1.148-2.42 1.213-4.212 1.293-6.879.417-5.414 2.213-8.09 5.687-12.187"/><path fill="#E2D82E" d="M318 203h6v4l5 1c1.297 6.343 1.113 12.62 0 19-2 2-2 2-4.82 2.195l-3.305-.07-3.32-.055L315 229c-.814-2.852-1.119-5.366-1.098-8.328l.01-2.422.026-2.5.013-2.547q.02-3.102.049-6.203h4zm1 1v4h-4q-.04 3.906-.062 7.813l-.026 2.236c-.015 3.25.053 5.845 1.088 8.951h11v-19h-4v-4z"/><path fill="#B9C81D" d="M367 56c1.43 2.862.6 4.934 0 8h-2l1 4h-2l-.375 2.563c-.65 3.57-1.612 6.955-2.625 10.437a171 171 0 0 0-1 5h-2l-.375 3.938c-.21 2.214-.21 2.214-.625 4.062l-2 1-1-12h2l1-6h2l.938-2.375C361 72 361 72 362 70c.225-1.537.408-3.08.563-4.625l.253-2.477L363 61h2z"/><path fill="#A6AC2F" d="M287 271h2v22h-1l-1-10-1 2h-2l-2 8h-2l-1 3v-6l2-1c.8-2.524 1.494-4.997 2.125-7.562.182-.711.364-1.422.55-2.155.45-1.759.888-3.52 1.325-5.283h2z"/><path fill="#A3C023" d="M216 256h3v4l2 1q.526 3.495 1 7c.651 1.34 1.315 2.676 2 4v4h3c1.206 4.672 1.094 9.215 1 14-1.75-2.624-2.654-4.557-3.625-7.5-.26-.773-.52-1.547-.79-2.344C223 278 223 278 223 275l-2-1c-.506-1.62-1-3.244-1.426-4.887-.847-3.116-1.928-6.146-2.988-9.195C216 258 216 258 216 256"/><path fill="#99B627" d="M281 317h1c.303 5.818-.766 10.571-2.437 16.125q-.689 2.347-1.372 4.695c-.21.724-.422 1.447-.64 2.193A73 73 0 0 0 276 347h-2v5h-2v-6h2l.438-2.625C277 328 277 328 277.563 324.75c.49-2.615.49-2.615.437-4.75h3z"/><path fill="#A1C22E" d="M270 353h1c.314 5.027-.349 8.427-2.266 13.066-.985 2.595-1.39 5.19-1.734 7.934l-12-1-2-9 2 1c.407 2.322.744 4.657 1 7h8l.438-1.75a91 91 0 0 1 1.187-4.312c.58-2.143.58-2.143-.625-4.938l1.938-1.75c2.044-2.23 2.644-3.324 3.062-6.25"/><path fill="#9EBA25" d="m240 328 3 1c3.473 7.308 5.582 14.923 6 23h2c2.277 8.036 2.277 8.036 1 12l-.805-2.266-1.07-2.984-1.055-2.953c-.984-2.733-.984-2.733-2.195-4.953-1.247-2.628-1.005-4.981-.875-7.844l-2-1c-.527-1.734-.527-1.734-1-4a584 584 0 0 0-1.562-5.25l-.817-2.703z"/><path fill="#B3C420" d="M354 95c.553 2.076 1 3.844 1 6h-2l-.297 1.8c-1.05 5.823-2.645 11.15-4.8 16.657-.89 2.506-1.447 4.927-1.903 7.543h-1q.174-2.625.375-5.25c.07-.975.14-1.95.21-2.953.407-2.74 1.185-4.362 2.415-6.797.269-2.353.269-2.353.313-4.812.417-5.415 2.213-8.09 5.687-12.188"/><path fill="#9FB423" d="m184 160 6 1-1 11h2l1 10c-4.147-3.344-4.388-5.841-5-11-1.098-3.11-2.525-6.05-4-9z"/><path fill="#EDED1D" d="M163 97c2.646 3.175 4.36 6.59 6.133 10.293.748 1.691.748 1.691 1.867 2.707.324 2.84.513 5.68.719 8.531.015 2.41.015 2.41 1.281 3.469.04 1.666.043 3.334 0 5-2.701-3.144-3.631-5.783-4.5-9.812-1.097-4.726-2.479-8.794-4.5-13.188a247 247 0 0 1-2-6z"/><path fill="#012618" d="M273 207c1.008 3.627 1.284 7.135 1.523 10.879.292 2.215.292 2.215 2.008 3.578C278 223 278 223 278.258 225.383l-.133 2.742c-.149 5.082.214 9.837.875 14.875-2.357-4.4-3.191-8.747-4.125-13.625l-.57-2.914C274 224 274 224 275 222h-2l-2-5 1-1-.562-1.75c-.575-2.953.3-4.579 1.562-7.25"/><path fill="#C0D221" d="M250 216c4.59 6.884 6.345 13.418 7.5 21.5l.5 2.5 2 1-1 2h-2l-1-8h-3a874 874 0 0 1-1.5-6.125l-.844-3.445c-.62-3.245-.776-6.138-.656-9.43"/><path fill="#9FC129" d="M195 192h2a886 886 0 0 1 2 5.75l1.125 3.234C201 204 201 204 201 208l2 1v6h2l1 10c-1.7-2.55-2.528-4.249-3.437-7.09l-.774-2.377-.789-2.47q-.777-2.422-1.562-4.84l-.692-2.164c-.767-2.116-1.74-4.049-2.746-6.059-.515-2.664-.73-5.295-1-8"/><path fill="#04150E" d="M354 260h1l1 5 6-1-2 4 2 1c-3.435 2.29-4.985 2.178-9 2-1.026-4.41-1.037-6.926 1-11"/><path fill="#9ABE25" d="m228 290 1 2h2v5h2l.332 1.871c.993 5.304 2.276 10.265 4.18 15.317C238 316 238 316 237 318c-6-14.738-6-14.738-6-20l-2-1c-1-3-1-3-1-7"/><path fill="#A5C01F" d="M242 192c2.175 2.175 2.386 2.971 3 5.875.534 2.351 1.017 4.157 2.125 6.313 1.132 2.345 1.018 4.243.875 6.812l2 1-1 4c-2-2-2-2-2.125-5.125L247 208h-2v-2h-2z"/><path fill="#3C4810" d="m307 152 4 1-1.937 1.5c-2.878 3.488-2.765 6.035-3.063 10.5h-1v-6h-2v16h-1a382 382 0 0 1-.312-8.125l-.127-2.305c-.092-4.258.177-6.787 2.959-10.125z"/><path fill="#7DA01A" d="M367 56c1.43 2.862.6 4.934 0 8h-2l1 4h-2l-.437 2.688A243 243 0 0 1 362 79h-2c-.25-5.625-.25-5.625 2-9 .454-2.28.454-2.28.625-4.687l.227-2.45L363 61h2z"/><path fill="#F2E609" d="M287 280h1v8h-2l-.25 1.688c-.976 3.01-2.702 4.934-4.75 7.312.632-5.053 2.135-9.296 4-14h2z"/><path fill="#C4D724" d="M236 176c4.489 4.489 4.489 4.489 4.688 8l.164 2.094L241 188c.302 1.34.615 2.68 1 4h-2v-3h-3z"/><path fill="#B0AA37" d="M311 193h2l3.027 5.371c.87 1.608.87 1.608 1.973 2.629 4.017.23 4.017.23 8 0l2-2 1 3c-4.12 1.998-7.452 2.178-12 2v-2l-1.875-.75c-2.52-1.483-3.137-2.534-4.125-5.25z"/><path fill="#EFEE16" d="m347 86 2 1v2h-2l.395 1.977c1.113 7.053 1.113 7.053-.442 10.023-1.39 1.625-1.39 1.625-3.953 4-1.033-2.788-1.045-3.868-.062-6.75L344 96h2l-.062-3.875c-.063-3.875-.063-3.875 1.062-6.125"/><path fill="#CFD617" d="M238 318c2 2 2 2 2.938 4.563L242 325l3 1c.625 2.875.625 2.875 1 6l-2 2-.812-2.375c-1.036-2.906-1.036-2.906-4.188-4.625-.766-1.91-.766-1.91-1.25-4.062l-.516-2.16L237 319z"/><path fill="#96B524" d="M154 71h3v9h3v9c-3.587-5.38-5.181-11.614-6-18"/><path fill="#BBC919" d="M224 276h3c1.206 4.672 1.094 9.215 1 14-3.19-4.784-4.269-8.224-4-14"/><path fill="#ADCA2B" d="m342 98 2 3h-2l-1 11h-2l-1 7c-1.11-1.7-1.11-1.7-2-4 .61-2.332.61-2.332 1.75-4.812 1.77-4.039 3.138-7.926 4.25-12.188"/><path fill="#E2E517" d="m275 290 4 6 2-3c2 2 2 2 2 6l-5 1v-2l-3-1z"/><path fill="#AFC523" d="M150 56c2.94 2.428 3.573 4.242 4 8 .038 2.333.046 4.667 0 7l-.375-1.937L153 67l-2-1c-.668-2.031-.668-2.031-1.187-4.5l-.543-2.469L149 57z"/><path fill="#A4BD22" d="M215 112h1l.875 3.188c1.007 3.667 1.007 3.667 2.25 6.5C220 124 220 124 220 128h-3c-1.592-5.57-2.207-10.211-2-16"/><path fill="#86A121" d="M196 56h1v5l2 1c.816 2.215.816 2.215 1.563 4.938.987 3.62.987 3.62 2.437 7.062h-3l-.875-2.75c-.95-3.103-.95-3.103-2.25-5.125-1.381-3.355-.995-6.52-.875-10.125"/><path fill="#8DB021" d="M163 97c4.147 4.542 5.87 10.53 6.188 16.563L169 116h-1l-6-18z"/><path fill="#95B61D" d="m176 137 1 2 3 1c1.477 3.49 1.072 7.274 1 11-5-9.615-5-9.615-5-14"/><path fill="#042117" d="M331 322h3v2h-2l-2 16h-1q-.079-3.375-.125-6.75l-.07-3.797c.18-3.181.505-4.818 2.195-7.453"/><path fill="#96AC1C" d="m206 225 2 1v4h3v6l-3-1-1-7-3-1z"/><path fill="#9AB518" d="M356 55h1v7l2 1-2.437.375L354 64l-1 2-1-3h2l.438-2.875C355 57 355 57 356 55"/><path fill="#73991E" d="M247 347c2 3 2 3 2 5h2c2.277 8.036 2.277 8.036 1 12l-.805-2.266-1.07-2.984-1.055-2.953c-.986-2.751-.986-2.751-2.265-5.031L246 349z"/><path fill="#2A2302" d="M284 309h1c1.04 4.475.96 6.862-1 11a91 91 0 0 0-1 4h-1q.21-3.47.438-6.937c.08-1.288.162-2.576.246-3.903C283 310 283 310 284 309"/><path fill="#73991C" d="M250 216c3.26 4.89 5.3 9.124 6 15-3.843-2.562-4.49-4.684-6-9-.187-3.437-.187-3.437 0-6"/><path fill="#032B18" d="m340 367 2 1v5l-2.937.375L336 374l-1 2v-2h-5v-1h9z"/><path fill="#A2BD1D" d="M220 129c2 1.563 2 1.563 4 4 .25 3.75.25 3.75 0 7l-3-1z"/><path fill="#88A91E" d="M348 112h2c-.973 5.353-1.956 10.434-5 15q.174-2.625.375-5.25c.07-.975.14-1.95.21-2.953.4-2.693 1.05-4.467 2.415-6.797"/><path fill="#9BB61F" d="M204 82c2 1.563 2 1.563 4 4 .25 3.75.25 3.75 0 7h-3z"/><path fill="#CDDD23" d="M270 353h1c.125 6.75.125 6.75-1 9h-2v2l-3-1v-2l1.938-1.875c2.096-2.16 2.646-3.213 3.062-6.125"/><path fill="#87AB24" d="M283 282h1a764 764 0 0 1-.437 4.375l-.247 2.46C283 291 283 291 282 293h-2l-1 3v-6l2-1c.73-2.314 1.401-4.648 2-7"/><path fill="#4B4307" d="M313 208h1l1 20h-2c-.941-2.824-1.073-4.142-.879-7.012l.147-2.295.17-2.38.158-2.417q.196-2.947.404-5.896"/><path fill="#BECB17" d="m184 160 6 1-1 4c-2.437-.375-2.437-.375-5-1l-1-2z"/><path fill="#608639" d="m344 127 1 3-.875 1.688c-1.64 3.37-1.753 6.59-2.125 10.312h-1v-13h2z"/><path fill="#052A18" d="M337 291c1.71 2.584 2.052 3.683 1.54 6.797-.303.974-.604 1.949-.915 2.953l-.898 2.984L336 306h-1q.212-3.187.438-6.375c.08-1.183.162-2.367.246-3.586C336 293 336 293 337 291"/><path fill="#D4CD46" d="M334 180h1c.178 4.548-.002 7.88-2 12h-1q.212-2.437.438-4.875c.08-.905.162-1.81.246-2.742C333 182 333 182 334 180"/><path fill="#0C301E" d="M335 118h1v5l-9-1v-2l-3-1c4.087-.24 7.177.577 11 2z"/><path fill="#C1D41A" d="m200 74 3 1 1 6h-2l-1 3z"/><path fill="#92B528" d="M220 267c3 2 3 2 3.512 4.164l.175 2.461.2 2.477L224 278l-1-3-2-1a109 109 0 0 1-1-7"/><path fill="#022316" d="m287 165 2 1-6 7-1-4h2v-2z"/><path fill="#F0EC18" d="m148 48 4 2-2 7h-1z"/><path fill="#789C1F" d="m228 152 2 3 1.688 1.938C233 159 233 159 232.688 161.25L232 163h-2c-1.193-3.877-2-6.916-2-11"/><path fill="#5F7C20" d="M208 94c2 1.625 2 1.625 4 4 .25 3.25.25 3.25 0 6-2.003-2.003-2.932-3.407-4-6z"/><path fill="#EEEC14" d="M251 345c.934 3.01 1.044 3.867 0 7h-2l-1-6z"/><path fill="#DEDD20" d="M281 317h1v7l-3 1-1-5h3z"/><path fill="#F7EE0D" d="m228 281 4 1v2l-2 1c-.656 2.527-.656 2.527-1 5h-1z"/><path fill="#7CAC23" d="M169 116h2c1.423 3.823 2.24 6.913 2 11-3.15-3.423-3.562-6.443-4-11"/><path fill="#EFEE15" d="m105 41 4 1h-2l1 6h-3z"/><path fill="#9BBF21" d="M275 290c1.991 2.986 2.941 5.597 4 9l-4-2z"/><path fill="#02170D" d="M364 258h2l-1 9h-2z"/><path fill="#C5DC26" d="m210 236 3 1v7l-2-1a109 109 0 0 1-1-7"/><path fill="#5F831D" d="M236 176c2 1.625 2 1.625 4 4 .25 3.25.25 3.25 0 6-4-6-4-6-4-10"/><path fill="#86A92D" d="M173 127c1.5 1.125 1.5 1.125 3 3 .188 3.188.188 3.188 0 6-2.062-2.25-2.062-2.25-4-5 .25-2.312.25-2.312 1-4"/><path fill="#93B225" d="M339 108c1.417 4.25.193 6.719-1 11-1.187-1.562-1.187-1.562-2-4 1.375-3.75 1.375-3.75 3-7"/><path fill="#63841C" d="M362 70h2l-2 9h-2c-.25-5.625-.25-5.625 2-9"/><path d="m589 386 1 2-2-1zM557 386l1 2-2-1zM525 386l1 2-2-1zM493 386l1 2-2-1zM461 386l1 2-2-1zM429 386l1 2-2-1zM397 386l1 2-2-1zM365 386l1 2-2-1zM333 386l1 2-2-1zM301 386l1 2-2-1zM269 386l1 2-2-1zM237 386l1 2-2-1zM205 386l1 2-2-1zM173 386l1 2-2-1zM141 386l1 2-2-1zM109 386l1 2-2-1zM77 386l1 2-2-1zM45 386l1 2-2-1zM13 386l1 2-2-1zM589 354l1 2-2-1zM557 354l1 2-2-1zM525 354l1 2-2-1zM493 354l1 2-2-1zM461 354l1 2-2-1zM429 354l1 2-2-1zM397 354l1 2-2-1zM365 354l1 2-2-1zM301 354l1 2-2-1zM237 354l1 2-2-1zM205 354l1 2-2-1zM173 354l1 2-2-1zM141 354l1 2-2-1zM109 354l1 2-2-1zM77 354l1 2-2-1zM45 354l1 2-2-1zM13 354l1 2-2-1zM589 322l1 2-2-1zM557 322l1 2-2-1zM525 322l1 2-2-1zM493 322l1 2-2-1zM461 322l1 2-2-1zM429 322l1 2-2-1zM397 322l1 2-2-1zM365 322l1 2-2-1zM237 322l1 2-2-1zM205 322l1 2-2-1zM173 322l1 2-2-1zM141 322l1 2-2-1zM109 322l1 2-2-1zM77 322l1 2-2-1zM45 322l1 2-2-1zM13 322l1 2-2-1zM589 290l1 2-2-1zM557 290l1 2-2-1zM525 290l1 2-2-1zM493 290l1 2-2-1zM461 290l1 2-2-1zM429 290l1 2-2-1zM397 290l1 2-2-1zM365 290l1 2-2-1zM205 290l1 2-2-1zM173 290l1 2-2-1zM141 290l1 2-2-1zM109 290l1 2-2-1zM77 290l1 2-2-1zM45 290l1 2-2-1zM13 290l1 2-2-1zM589 258l1 2-2-1zM557 258l1 2-2-1zM525 258l1 2-2-1zM493 258l1 2-2-1zM461 258l1 2-2-1zM429 258l1 2-2-1zM397 258l1 2-2-1zM269 258l1 2-2-1zM205 258l1 2-2-1zM173 258l1 2-2-1zM141 258l1 2-2-1zM109 258l1 2-2-1zM77 258l1 2-2-1zM45 258l1 2-2-1zM13 258l1 2-2-1zM589 226l1 2-2-1zM557 226l1 2-2-1zM525 226l1 2-2-1zM493 226l1 2-2-1zM461 226l1 2-2-1zM429 226l1 2-2-1zM397 226l1 2-2-1zM365 226l1 2-2-1zM269 226l1 2-2-1zM173 226l1 2-2-1zM141 226l1 2-2-1zM109 226l1 2-2-1zM77 226l1 2-2-1zM45 226l1 2-2-1zM13 226l1 2-2-1zM589 194l1 2-2-1zM557 194l1 2-2-1zM525 194l1 2-2-1zM493 194l1 2-2-1zM461 194l1 2-2-1zM429 194l1 2-2-1zM397 194l1 2-2-1zM365 194l1 2-2-1zM269 194l1 2-2-1zM173 194l1 2-2-1zM141 194l1 2-2-1zM109 194l1 2-2-1zM77 194l1 2-2-1zM45 194l1 2-2-1zM13 194l1 2-2-1zM589 162l1 2-2-1zM557 162l1 2-2-1zM525 162l1 2-2-1zM493 162l1 2-2-1zM461 162l1 2-2-1zM429 162l1 2-2-1zM397 162l1 2-2-1zM365 162l1 2-2-1zM269 162l1 2-2-1zM237 162l1 2-2-1zM173 162l1 2-2-1zM141 162l1 2-2-1zM109 162l1 2-2-1zM77 162l1 2-2-1zM45 162l1 2-2-1zM13 162l1 2-2-1zM589 130l1 2-2-1zM557 130l1 2-2-1zM525 130l1 2-2-1zM493 130l1 2-2-1zM461 130l1 2-2-1zM429 130l1 2-2-1zM397 130l1 2-2-1zM365 130l1 2-2-1zM301 130l1 2-2-1zM269 130l1 2-2-1zM237 130l1 2-2-1zM141 130l1 2-2-1zM109 130l1 2-2-1zM77 130l1 2-2-1zM45 130l1 2-2-1zM13 130l1 2-2-1zM589 98l1 2-2-1zM557 98l1 2-2-1zM525 98l1 2-2-1zM493 98l1 2-2-1zM461 98l1 2-2-1zM429 98l1 2-2-1zM397 98l1 2-2-1zM365 98l1 2-2-1zM333 98l1 2-2-1zM301 98l1 2-2-1zM269 98l1 2-2-1zM237 98l1 2-2-1zM141 98l1 2-2-1zM109 98l1 2-2-1zM77 98l1 2-2-1zM45 98l1 2-2-1zM13 98l1 2-2-1zM589 66l1 2-2-1zM557 66l1 2-2-1zM525 66l1 2-2-1zM493 66l1 2-2-1zM461 66l1 2-2-1zM429 66l1 2-2-1zM397 66l1 2-2-1zM333 66l1 2-2-1zM301 66l1 2-2-1zM269 66l1 2-2-1zM237 66l1 2-2-1zM205 66l1 2-2-1zM141 66l1 2-2-1zM109 66l1 2-2-1zM77 66l1 2-2-1zM45 66l1 2-2-1zM13 66l1 2-2-1zM589 34l1 2-2-1zM557 34l1 2-2-1zM525 34l1 2-2-1zM493 34l1 2-2-1zM461 34l1 2-2-1zM429 34l1 2-2-1zM397 34l1 2-2-1zM365 34l1 2-2-1zM333 34l1 2-2-1zM301 34l1 2-2-1zM269 34l1 2-2-1zM237 34l1 2-2-1zM205 34l1 2-2-1zM173 34l1 2-2-1zM141 34l1 2-2-1zM109 34l1 2-2-1zM77 34l1 2-2-1zM45 34l1 2-2-1zM13 34l1 2-2-1zM589 2l1 2-2-1zM557 2l1 2-2-1zM525 2l1 2-2-1zM493 2l1 2-2-1zM461 2l1 2-2-1zM429 2l1 2-2-1zM397 2l1 2-2-1zM365 2l1 2-2-1zM333 2l1 2-2-1zM301 2l1 2-2-1zM269 2l1 2-2-1zM237 2l1 2-2-1zM205 2l1 2-2-1zM173 2l1 2-2-1zM141 2l1 2-2-1zM109 2l1 2-2-1zM77 2l1 2-2-1zM45 2l1 2-2-1zM13 2l1 2-2-1zM596 397l2 1ZM564 397l2 1ZM532 397l2 1ZM500 397l2 1ZM468 397l2 1ZM436 397l2 1ZM404 397l2 1ZM372 397l2 1ZM340 397l2 1ZM308 397l2 1ZM276 397l2 1ZM244 397l2 1ZM212 397l2 1ZM180 397l2 1ZM148 397l2 1ZM116 397l2 1ZM84 397l2 1ZM52 397l2 1ZM20 397l2 1ZM586 391l2 1ZM554 391l2 1ZM522 391l2 1ZM490 391l2 1ZM458 391l2 1ZM426 391l2 1ZM394 391l2 1ZM362 391l2 1ZM330 391l2 1ZM298 391l2 1ZM266 391l2 1ZM234 391l2 1ZM202 391l2 1ZM170 391l2 1ZM138 391l2 1ZM106 391l2 1ZM74 391l2 1ZM42 391l2 1ZM10 391l2 1ZM602 385l2 1ZM570 385l2 1ZM538 385l2 1ZM506 385l2 1ZM474 385l2 1ZM442 385l2 1ZM410 385l2 1ZM378 385l2 1ZM346 385l2 1ZM314 385l2 1ZM282 385l2 1ZM250 385l2 1ZM218 385l2 1ZM186 385l2 1ZM154 385l2 1ZM122 385l2 1ZM90 385l2 1ZM58 385l2 1ZM26 385l2 1ZM580 384l2 1ZM548 384l2 1ZM516 384l2 1ZM484 384l2 1ZM452 384l2 1ZM420 384l2 1ZM388 384l2 1ZM356 384l2 1ZM324 384l2 1ZM292 384l2 1ZM260 384l2 1ZM228 384l2 1ZM196 384l2 1ZM164 384l2 1ZM132 384l2 1ZM100 384l2 1ZM68 384l2 1ZM36 384l2 1ZM4 384l2 1ZM608 383l2 1ZM589 383l2 1ZM576 383l2 1ZM557 383l2 1ZM544 383l2 1ZM525 383l2 1ZM512 383l2 1ZM493 383l2 1ZM480 383l2 1ZM461 383l2 1ZM448 383l2 1ZM429 383l2 1ZM416 383l2 1ZM397 383l2 1ZM384 383l2 1ZM365 383l2 1ZM352 383l2 1ZM333 383l2 1ZM320 383l2 1ZM301 383l2 1ZM288 383l2 1ZM269 383l2 1ZM256 383l2 1ZM237 383l2 1ZM224 383l2 1ZM205 383l2 1ZM192 383l2 1ZM173 383l2 1ZM160 383l2 1ZM141 383l2 1ZM128 383l2 1ZM109 383l2 1ZM96 383l2 1ZM77 383l2 1ZM64 383l2 1ZM45 383l2 1ZM32 383l2 1ZM13 383l2 1ZM0 383l2 1ZM583 382l2 1ZM551 382l2 1ZM519 382l2 1ZM487 382l2 1ZM455 382l2 1ZM423 382l2 1ZM391 382l2 1ZM359 382l2 1ZM327 382l2 1ZM295 382l2 1ZM263 382l2 1ZM231 382l2 1ZM199 382l2 1ZM167 382l2 1ZM135 382l2 1ZM103 382l2 1ZM71 382l2 1ZM39 382l2 1ZM7 382l2 1ZM596 365l2 1ZM564 365l2 1ZM532 365l2 1ZM500 365l2 1ZM468 365l2 1ZM436 365l2 1ZM404 365l2 1ZM372 365l2 1ZM308 365l2 1ZM244 365l2 1ZM212 365l2 1ZM180 365l2 1ZM148 365l2 1ZM116 365l2 1ZM84 365l2 1ZM52 365l2 1ZM20 365l2 1ZM586 359l2 1ZM554 359l2 1ZM522 359l2 1ZM490 359l2 1ZM458 359l2 1ZM426 359l2 1ZM394 359l2 1ZM362 359l2 1ZM298 359l2 1ZM234 359l2 1ZM202 359l2 1ZM170 359l2 1ZM138 359l2 1ZM106 359l2 1ZM74 359l2 1ZM42 359l2 1ZM10 359l2 1ZM602 353l2 1ZM570 353l2 1ZM538 353l2 1ZM506 353l2 1ZM474 353l2 1ZM442 353l2 1ZM410 353l2 1ZM378 353l2 1ZM346 353l2 1ZM218 353l2 1ZM186 353l2 1ZM154 353l2 1ZM122 353l2 1ZM90 353l2 1ZM58 353l2 1ZM26 353l2 1ZM580 352l2 1ZM548 352l2 1ZM516 352l2 1ZM484 352l2 1ZM452 352l2 1ZM420 352l2 1ZM388 352l2 1ZM356 352l2 1ZM228 352l2 1ZM196 352l2 1ZM164 352l2 1ZM132 352l2 1ZM100 352l2 1ZM68 352l2 1ZM36 352l2 1ZM4 352l2 1ZM608 351l2 1ZM589 351l2 1ZM576 351l2 1ZM557 351l2 1ZM544 351l2 1ZM525 351l2 1ZM512 351l2 1ZM493 351l2 1ZM480 351l2 1ZM461 351l2 1ZM448 351l2 1ZM429 351l2 1ZM416 351l2 1ZM397 351l2 1ZM384 351l2 1ZM365 351l2 1ZM352 351l2 1ZM333 351l2 1ZM301 351l2 1ZM237 351l2 1ZM224 351l2 1ZM205 351l2 1ZM192 351l2 1ZM173 351l2 1ZM160 351l2 1ZM141 351l2 1ZM128 351l2 1ZM109 351l2 1ZM96 351l2 1ZM77 351l2 1ZM64 351l2 1ZM45 351l2 1ZM32 351l2 1ZM13 351l2 1ZM0 351l2 1ZM583 350l2 1ZM551 350l2 1ZM519 350l2 1ZM487 350l2 1ZM455 350l2 1ZM423 350l2 1ZM391 350l2 1ZM359 350l2 1ZM231 350l2 1ZM199 350l2 1ZM167 350l2 1ZM135 350l2 1ZM103 350l2 1ZM71 350l2 1ZM39 350l2 1ZM7 350l2 1ZM596 333l2 1ZM564 333l2 1ZM532 333l2 1ZM500 333l2 1ZM468 333l2 1ZM436 333l2 1ZM404 333l2 1ZM372 333l2 1ZM340 333l2 1ZM308 333l2 1ZM212 333l2 1ZM180 333l2 1ZM148 333l2 1ZM116 333l2 1ZM84 333l2 1ZM52 333l2 1ZM20 333l2 1ZM586 327l2 1ZM554 327l2 1ZM522 327l2 1ZM490 327l2 1ZM458 327l2 1ZM426 327l2 1ZM394 327l2 1ZM362 327l2 1ZM234 327l2 1ZM202 327l2 1ZM170 327l2 1ZM138 327l2 1ZM106 327l2 1ZM74 327l2 1ZM42 327l2 1ZM10 327l2 1ZM602 321l2 1ZM570 321l2 1ZM538 321l2 1ZM506 321l2 1ZM474 321l2 1ZM442 321l2 1ZM410 321l2 1ZM378 321l2 1ZM346 321l2 1ZM218 321l2 1ZM186 321l2 1ZM154 321l2 1ZM122 321l2 1ZM90 321l2 1ZM58 321l2 1ZM26 321l2 1ZM580 320l2 1ZM548 320l2 1ZM516 320l2 1ZM484 320l2 1ZM452 320l2 1ZM420 320l2 1ZM388 320l2 1ZM356 320l2 1ZM228 320l2 1ZM196 320l2 1ZM164 320l2 1ZM132 320l2 1ZM100 320l2 1ZM68 320l2 1ZM36 320l2 1ZM4 320l2 1ZM608 319l2 1ZM589 319l2 1ZM576 319l2 1ZM557 319l2 1ZM544 319l2 1ZM525 319l2 1ZM512 319l2 1ZM493 319l2 1ZM480 319l2 1ZM461 319l2 1ZM448 319l2 1ZM429 319l2 1ZM416 319l2 1ZM397 319l2 1ZM384 319l2 1ZM365 319l2 1ZM352 319l2 1ZM301 319l2 1ZM224 319l2 1ZM205 319l2 1ZM192 319l2 1ZM173 319l2 1ZM160 319l2 1ZM141 319l2 1ZM128 319l2 1ZM109 319l2 1ZM96 319l2 1ZM77 319l2 1ZM64 319l2 1ZM45 319l2 1ZM32 319l2 1ZM13 319l2 1ZM0 319l2 1ZM583 318l2 1ZM551 318l2 1ZM519 318l2 1ZM487 318l2 1ZM455 318l2 1ZM423 318l2 1ZM391 318l2 1ZM359 318l2 1ZM231 318l2 1ZM199 318l2 1ZM167 318l2 1ZM135 318l2 1ZM103 318l2 1ZM71 318l2 1ZM39 318l2 1ZM7 318l2 1ZM596 301l2 1ZM564 301l2 1ZM532 301l2 1ZM500 301l2 1ZM468 301l2 1ZM436 301l2 1ZM404 301l2 1ZM372 301l2 1ZM340 301l2 1ZM308 301l2 1ZM212 301l2 1ZM180 301l2 1ZM148 301l2 1ZM116 301l2 1ZM84 301l2 1ZM52 301l2 1ZM20 301l2 1ZM586 295l2 1ZM554 295l2 1ZM522 295l2 1ZM490 295l2 1ZM458 295l2 1ZM426 295l2 1ZM394 295l2 1ZM362 295l2 1ZM202 295l2 1ZM170 295l2 1ZM138 295l2 1ZM106 295l2 1ZM74 295l2 1ZM42 295l2 1ZM10 295l2 1ZM602 289l2 1ZM570 289l2 1ZM538 289l2 1ZM506 289l2 1ZM474 289l2 1ZM442 289l2 1ZM410 289l2 1ZM378 289l2 1ZM346 289l2 1ZM218 289l2 1ZM186 289l2 1ZM154 289l2 1ZM122 289l2 1ZM90 289l2 1ZM58 289l2 1ZM26 289l2 1ZM580 288l2 1ZM548 288l2 1ZM516 288l2 1ZM484 288l2 1ZM452 288l2 1ZM420 288l2 1ZM388 288l2 1ZM356 288l2 1ZM196 288l2 1ZM164 288l2 1ZM132 288l2 1ZM100 288l2 1ZM68 288l2 1ZM36 288l2 1ZM4 288l2 1ZM608 287l2 1ZM589 287l2 1ZM576 287l2 1ZM557 287l2 1ZM544 287l2 1ZM525 287l2 1ZM512 287l2 1ZM493 287l2 1ZM480 287l2 1ZM461 287l2 1ZM448 287l2 1ZM429 287l2 1ZM416 287l2 1ZM397 287l2 1ZM384 287l2 1ZM365 287l2 1ZM352 287l2 1ZM224 287l2 1ZM205 287l2 1ZM192 287l2 1ZM173 287l2 1ZM160 287l2 1ZM141 287l2 1ZM128 287l2 1ZM109 287l2 1ZM96 287l2 1ZM77 287l2 1ZM64 287l2 1ZM45 287l2 1ZM32 287l2 1ZM13 287l2 1ZM0 287l2 1ZM583 286l2 1ZM551 286l2 1ZM519 286l2 1ZM487 286l2 1ZM455 286l2 1ZM423 286l2 1ZM391 286l2 1ZM359 286l2 1ZM199 286l2 1ZM167 286l2 1ZM135 286l2 1ZM103 286l2 1ZM71 286l2 1ZM39 286l2 1ZM7 286l2 1ZM596 269l2 1ZM564 269l2 1ZM532 269l2 1ZM500 269l2 1ZM468 269l2 1ZM436 269l2 1ZM404 269l2 1ZM372 269l2 1ZM276 269l2 1ZM212 269l2 1ZM180 269l2 1ZM148 269l2 1ZM116 269l2 1ZM84 269l2 1ZM52 269l2 1ZM20 269l2 1ZM586 263l2 1ZM554 263l2 1ZM522 263l2 1ZM490 263l2 1ZM458 263l2 1ZM426 263l2 1ZM394 263l2 1ZM202 263l2 1ZM170 263l2 1ZM138 263l2 1ZM106 263l2 1ZM74 263l2 1ZM42 263l2 1ZM10 263l2 1ZM602 257l2 1ZM570 257l2 1ZM538 257l2 1ZM506 257l2 1ZM474 257l2 1ZM442 257l2 1ZM410 257l2 1ZM378 257l2 1ZM186 257l2 1ZM154 257l2 1ZM122 257l2 1ZM90 257l2 1ZM58 257l2 1ZM26 257l2 1ZM580 256l2 1ZM548 256l2 1ZM516 256l2 1ZM484 256l2 1ZM452 256l2 1ZM420 256l2 1ZM388 256l2 1ZM196 256l2 1ZM164 256l2 1ZM132 256l2 1ZM100 256l2 1ZM68 256l2 1ZM36 256l2 1ZM4 256l2 1ZM608 255l2 1ZM589 255l2 1ZM576 255l2 1ZM557 255l2 1ZM544 255l2 1ZM525 255l2 1ZM512 255l2 1ZM493 255l2 1ZM480 255l2 1ZM461 255l2 1ZM448 255l2 1ZM429 255l2 1ZM416 255l2 1ZM397 255l2 1ZM384 255l2 1ZM352 255l2 1ZM269 255l2 1ZM205 255l2 1ZM192 255l2 1ZM173 255l2 1ZM160 255l2 1ZM141 255l2 1ZM128 255l2 1ZM109 255l2 1ZM96 255l2 1ZM77 255l2 1ZM64 255l2 1ZM45 255l2 1ZM32 255l2 1ZM13 255l2 1ZM0 255l2 1ZM583 254l2 1ZM551 254l2 1ZM519 254l2 1ZM487 254l2 1ZM455 254l2 1ZM423 254l2 1ZM391 254l2 1ZM199 254l2 1ZM167 254l2 1ZM135 254l2 1ZM103 254l2 1ZM71 254l2 1ZM39 254l2 1ZM7 254l2 1ZM596 237l2 1ZM564 237l2 1ZM532 237l2 1ZM500 237l2 1ZM468 237l2 1ZM436 237l2 1ZM404 237l2 1ZM372 237l2 1ZM180 237l2 1ZM148 237l2 1ZM116 237l2 1ZM84 237l2 1ZM52 237l2 1ZM20 237l2 1ZM586 231l2 1ZM554 231l2 1ZM522 231l2 1ZM490 231l2 1ZM458 231l2 1ZM426 231l2 1ZM394 231l2 1ZM362 231l2 1ZM266 231l2 1ZM202 231l2 1ZM170 231l2 1ZM138 231l2 1ZM106 231l2 1ZM74 231l2 1ZM42 231l2 1ZM10 231l2 1ZM602 225l2 1ZM570 225l2 1ZM538 225l2 1ZM506 225l2 1ZM474 225l2 1ZM442 225l2 1ZM410 225l2 1ZM378 225l2 1ZM186 225l2 1ZM154 225l2 1ZM122 225l2 1ZM90 225l2 1ZM58 225l2 1ZM26 225l2 1ZM580 224l2 1ZM548 224l2 1ZM516 224l2 1ZM484 224l2 1ZM452 224l2 1ZM420 224l2 1ZM388 224l2 1ZM260 224l2 1ZM196 224l2 1ZM164 224l2 1ZM132 224l2 1ZM100 224l2 1ZM68 224l2 1ZM36 224l2 1ZM4 224l2 1ZM608 223l2 1ZM589 223l2 1ZM576 223l2 1ZM557 223l2 1ZM544 223l2 1ZM525 223l2 1ZM512 223l2 1ZM493 223l2 1ZM480 223l2 1ZM461 223l2 1ZM448 223l2 1ZM429 223l2 1ZM416 223l2 1ZM397 223l2 1ZM384 223l2 1ZM365 223l2 1ZM269 223l2 1ZM256 223l2 1ZM192 223l2 1ZM173 223l2 1ZM160 223l2 1ZM141 223l2 1ZM128 223l2 1ZM109 223l2 1ZM96 223l2 1ZM77 223l2 1ZM64 223l2 1ZM45 223l2 1ZM32 223l2 1ZM13 223l2 1ZM0 223l2 1ZM583 222l2 1ZM551 222l2 1ZM519 222l2 1ZM487 222l2 1ZM455 222l2 1ZM423 222l2 1ZM391 222l2 1ZM263 222l2 1ZM199 222l2 1ZM167 222l2 1ZM135 222l2 1ZM103 222l2 1ZM71 222l2 1ZM39 222l2 1ZM7 222l2 1ZM596 205l2 1ZM564 205l2 1ZM532 205l2 1ZM500 205l2 1ZM468 205l2 1ZM436 205l2 1ZM404 205l2 1ZM372 205l2 1ZM180 205l2 1ZM148 205l2 1ZM116 205l2 1ZM84 205l2 1ZM52 205l2 1ZM20 205l2 1ZM586 199l2 1ZM554 199l2 1ZM522 199l2 1ZM490 199l2 1ZM458 199l2 1ZM426 199l2 1ZM394 199l2 1ZM362 199l2 1ZM266 199l2 1ZM170 199l2 1ZM138 199l2 1ZM106 199l2 1ZM74 199l2 1ZM42 199l2 1ZM10 199l2 1ZM602 193l2 1ZM570 193l2 1ZM538 193l2 1ZM506 193l2 1ZM474 193l2 1ZM442 193l2 1ZM410 193l2 1ZM378 193l2 1ZM250 193l2 1ZM186 193l2 1ZM154 193l2 1ZM122 193l2 1ZM90 193l2 1ZM58 193l2 1ZM26 193l2 1ZM580 192l2 1ZM548 192l2 1ZM516 192l2 1ZM484 192l2 1ZM452 192l2 1ZM420 192l2 1ZM388 192l2 1ZM356 192l2 1ZM260 192l2 1ZM164 192l2 1ZM132 192l2 1ZM100 192l2 1ZM68 192l2 1ZM36 192l2 1ZM4 192l2 1ZM608 191l2 1ZM589 191l2 1ZM576 191l2 1ZM557 191l2 1ZM544 191l2 1ZM525 191l2 1ZM512 191l2 1ZM493 191l2 1ZM480 191l2 1ZM461 191l2 1ZM448 191l2 1ZM429 191l2 1ZM416 191l2 1ZM397 191l2 1ZM384 191l2 1ZM365 191l2 1ZM269 191l2 1ZM256 191l2 1ZM173 191l2 1ZM160 191l2 1ZM141 191l2 1ZM128 191l2 1ZM109 191l2 1ZM96 191l2 1ZM77 191l2 1ZM64 191l2 1ZM45 191l2 1ZM32 191l2 1ZM13 191l2 1ZM0 191l2 1ZM583 190l2 1ZM551 190l2 1ZM519 190l2 1ZM487 190l2 1ZM455 190l2 1ZM423 190l2 1ZM391 190l2 1ZM359 190l2 1ZM263 190l2 1ZM167 190l2 1ZM135 190l2 1ZM103 190l2 1ZM71 190l2 1ZM39 190l2 1ZM7 190l2 1ZM596 173l2 1ZM564 173l2 1ZM532 173l2 1ZM500 173l2 1ZM468 173l2 1ZM436 173l2 1ZM404 173l2 1ZM372 173l2 1ZM276 173l2 1ZM244 173l2 1ZM180 173l2 1ZM148 173l2 1ZM116 173l2 1ZM84 173l2 1ZM52 173l2 1ZM20 173l2 1ZM586 167l2 1ZM554 167l2 1ZM522 167l2 1ZM490 167l2 1ZM458 167l2 1ZM426 167l2 1ZM394 167l2 1ZM362 167l2 1ZM266 167l2 1ZM170 167l2 1ZM138 167l2 1ZM106 167l2 1ZM74 167l2 1ZM42 167l2 1ZM10 167l2 1ZM602 161l2 1ZM570 161l2 1ZM538 161l2 1ZM506 161l2 1ZM474 161l2 1ZM442 161l2 1ZM410 161l2 1ZM378 161l2 1ZM346 161l2 1ZM282 161l2 1ZM250 161l2 1ZM154 161l2 1ZM122 161l2 1ZM90 161l2 1ZM58 161l2 1ZM26 161l2 1ZM580 160l2 1ZM548 160l2 1ZM516 160l2 1ZM484 160l2 1ZM452 160l2 1ZM420 160l2 1ZM388 160l2 1ZM356 160l2 1ZM292 160l2 1ZM260 160l2 1ZM164 160l2 1ZM132 160l2 1ZM100 160l2 1ZM68 160l2 1ZM36 160l2 1ZM4 160l2 1ZM608 159l2 1ZM589 159l2 1ZM576 159l2 1ZM557 159l2 1ZM544 159l2 1ZM525 159l2 1ZM512 159l2 1ZM493 159l2 1ZM480 159l2 1ZM461 159l2 1ZM448 159l2 1ZM429 159l2 1ZM416 159l2 1ZM397 159l2 1ZM384 159l2 1ZM365 159l2 1ZM352 159l2 1ZM288 159l2 1ZM269 159l2 1ZM256 159l2 1ZM237 159l2 1ZM173 159l2 1ZM160 159l2 1ZM141 159l2 1ZM128 159l2 1ZM109 159l2 1ZM96 159l2 1ZM77 159l2 1ZM64 159l2 1ZM45 159l2 1ZM32 159l2 1ZM13 159l2 1ZM0 159l2 1ZM583 158l2 1ZM551 158l2 1ZM519 158l2 1ZM487 158l2 1ZM455 158l2 1ZM423 158l2 1ZM391 158l2 1ZM359 158l2 1ZM295 158l2 1ZM263 158l2 1ZM167 158l2 1ZM135 158l2 1ZM103 158l2 1ZM71 158l2 1ZM39 158l2 1ZM7 158l2 1ZM596 141l2 1ZM564 141l2 1ZM532 141l2 1ZM500 141l2 1ZM468 141l2 1ZM436 141l2 1ZM404 141l2 1ZM372 141l2 1ZM276 141l2 1ZM244 141l2 1ZM148 141l2 1ZM116 141l2 1ZM84 141l2 1ZM52 141l2 1ZM20 141l2 1ZM586 135l2 1ZM554 135l2 1ZM522 135l2 1ZM490 135l2 1ZM458 135l2 1ZM426 135l2 1ZM394 135l2 1ZM362 135l2 1ZM298 135l2 1ZM266 135l2 1ZM234 135l2 1ZM170 135l2 1ZM138 135l2 1ZM106 135l2 1ZM74 135l2 1ZM42 135l2 1ZM10 135l2 1ZM602 129l2 1ZM570 129l2 1ZM538 129l2 1ZM506 129l2 1ZM474 129l2 1ZM442 129l2 1ZM410 129l2 1ZM378 129l2 1ZM346 129l2 1ZM282 129l2 1ZM250 129l2 1ZM154 129l2 1ZM122 129l2 1ZM90 129l2 1ZM58 129l2 1ZM26 129l2 1ZM580 128l2 1ZM548 128l2 1ZM516 128l2 1ZM484 128l2 1ZM452 128l2 1ZM420 128l2 1ZM388 128l2 1ZM356 128l2 1ZM292 128l2 1ZM260 128l2 1ZM228 128l2 1ZM164 128l2 1ZM132 128l2 1ZM100 128l2 1ZM68 128l2 1ZM36 128l2 1ZM4 128l2 1ZM608 127l2 1ZM589 127l2 1ZM576 127l2 1ZM557 127l2 1ZM544 127l2 1ZM525 127l2 1ZM512 127l2 1ZM493 127l2 1ZM480 127l2 1ZM461 127l2 1ZM448 127l2 1ZM429 127l2 1ZM416 127l2 1ZM397 127l2 1ZM384 127l2 1ZM365 127l2 1ZM352 127l2 1ZM301 127l2 1ZM288 127l2 1ZM269 127l2 1ZM256 127l2 1ZM237 127l2 1ZM224 127l2 1ZM160 127l2 1ZM141 127l2 1ZM128 127l2 1ZM109 127l2 1ZM96 127l2 1ZM77 127l2 1ZM64 127l2 1ZM45 127l2 1ZM32 127l2 1ZM13 127l2 1ZM0 127l2 1ZM583 126l2 1ZM551 126l2 1ZM519 126l2 1ZM487 126l2 1ZM455 126l2 1ZM423 126l2 1ZM391 126l2 1ZM359 126l2 1ZM295 126l2 1ZM263 126l2 1ZM231 126l2 1ZM167 126l2 1ZM135 126l2 1ZM103 126l2 1ZM71 126l2 1ZM39 126l2 1ZM7 126l2 1ZM596 109l2 1ZM564 109l2 1ZM532 109l2 1ZM500 109l2 1ZM468 109l2 1ZM436 109l2 1ZM404 109l2 1ZM372 109l2 1ZM308 109l2 1ZM276 109l2 1ZM244 109l2 1ZM148 109l2 1ZM116 109l2 1ZM84 109l2 1ZM52 109l2 1ZM20 109l2 1ZM586 103l2 1ZM554 103l2 1ZM522 103l2 1ZM490 103l2 1ZM458 103l2 1ZM426 103l2 1ZM394 103l2 1ZM362 103l2 1ZM330 103l2 1ZM298 103l2 1ZM266 103l2 1ZM234 103l2 1ZM138 103l2 1ZM106 103l2 1ZM74 103l2 1ZM42 103l2 1ZM10 103l2 1ZM602 97l2 1ZM570 97l2 1ZM538 97l2 1ZM506 97l2 1ZM474 97l2 1ZM442 97l2 1ZM410 97l2 1ZM378 97l2 1ZM314 97l2 1ZM282 97l2 1ZM250 97l2 1ZM218 97l2 1ZM154 97l2 1ZM122 97l2 1ZM90 97l2 1ZM58 97l2 1ZM26 97l2 1ZM580 96l2 1ZM548 96l2 1ZM516 96l2 1ZM484 96l2 1ZM452 96l2 1ZM420 96l2 1ZM388 96l2 1ZM356 96l2 1ZM324 96l2 1ZM292 96l2 1ZM260 96l2 1ZM228 96l2 1ZM132 96l2 1ZM100 96l2 1ZM68 96l2 1ZM36 96l2 1ZM4 96l2 1ZM608 95l2 1ZM589 95l2 1ZM576 95l2 1ZM557 95l2 1ZM544 95l2 1ZM525 95l2 1ZM512 95l2 1ZM493 95l2 1ZM480 95l2 1ZM461 95l2 1ZM448 95l2 1ZM429 95l2 1ZM416 95l2 1ZM397 95l2 1ZM384 95l2 1ZM365 95l2 1ZM333 95l2 1ZM320 95l2 1ZM301 95l2 1ZM288 95l2 1ZM269 95l2 1ZM256 95l2 1ZM237 95l2 1ZM224 95l2 1ZM141 95l2 1ZM128 95l2 1ZM109 95l2 1ZM96 95l2 1ZM77 95l2 1ZM64 95l2 1ZM45 95l2 1ZM32 95l2 1ZM13 95l2 1ZM0 95l2 1ZM583 94l2 1ZM551 94l2 1ZM519 94l2 1ZM487 94l2 1ZM455 94l2 1ZM423 94l2 1ZM391 94l2 1ZM359 94l2 1ZM327 94l2 1ZM295 94l2 1ZM263 94l2 1ZM231 94l2 1ZM135 94l2 1ZM103 94l2 1ZM71 94l2 1ZM39 94l2 1ZM7 94l2 1ZM596 77l2 1ZM564 77l2 1ZM532 77l2 1ZM500 77l2 1ZM468 77l2 1ZM436 77l2 1ZM404 77l2 1ZM372 77l2 1ZM340 77l2 1ZM308 77l2 1ZM276 77l2 1ZM244 77l2 1ZM212 77l2 1ZM148 77l2 1ZM116 77l2 1ZM84 77l2 1ZM52 77l2 1ZM20 77l2 1ZM586 71l2 1ZM554 71l2 1ZM522 71l2 1ZM490 71l2 1ZM458 71l2 1ZM426 71l2 1ZM394 71l2 1ZM330 71l2 1ZM298 71l2 1ZM266 71l2 1ZM234 71l2 1ZM202 71l2 1ZM138 71l2 1ZM106 71l2 1ZM74 71l2 1ZM42 71l2 1ZM10 71l2 1ZM602 65l2 1ZM570 65l2 1ZM538 65l2 1ZM506 65l2 1ZM474 65l2 1ZM442 65l2 1ZM410 65l2 1ZM378 65l2 1ZM346 65l2 1ZM314 65l2 1ZM282 65l2 1ZM250 65l2 1ZM218 65l2 1ZM122 65l2 1ZM90 65l2 1ZM58 65l2 1ZM26 65l2 1ZM580 64l2 1ZM548 64l2 1ZM516 64l2 1ZM484 64l2 1ZM452 64l2 1ZM420 64l2 1ZM388 64l2 1ZM324 64l2 1ZM292 64l2 1ZM260 64l2 1ZM228 64l2 1ZM132 64l2 1ZM100 64l2 1ZM68 64l2 1ZM36 64l2 1ZM4 64l2 1ZM608 63l2 1ZM589 63l2 1ZM576 63l2 1ZM557 63l2 1ZM544 63l2 1ZM525 63l2 1ZM512 63l2 1ZM493 63l2 1ZM480 63l2 1ZM461 63l2 1ZM448 63l2 1ZM429 63l2 1ZM416 63l2 1ZM397 63l2 1ZM384 63l2 1ZM333 63l2 1ZM320 63l2 1ZM301 63l2 1ZM288 63l2 1ZM269 63l2 1ZM256 63l2 1ZM237 63l2 1ZM224 63l2 1ZM205 63l2 1ZM141 63l2 1ZM128 63l2 1ZM109 63l2 1ZM96 63l2 1ZM77 63l2 1ZM64 63l2 1ZM45 63l2 1ZM32 63l2 1ZM13 63l2 1ZM0 63l2 1ZM583 62l2 1ZM551 62l2 1ZM519 62l2 1ZM487 62l2 1ZM455 62l2 1ZM423 62l2 1ZM391 62l2 1ZM327 62l2 1ZM295 62l2 1ZM263 62l2 1ZM231 62l2 1ZM199 62l2 1ZM135 62l2 1ZM103 62l2 1ZM71 62l2 1ZM39 62l2 1ZM7 62l2 1ZM596 45l2 1ZM564 45l2 1ZM532 45l2 1ZM500 45l2 1ZM468 45l2 1ZM436 45l2 1ZM308 45l2 1ZM276 45l2 1ZM244 45l2 1ZM84 45l2 1ZM52 45l2 1ZM20 45l2 1ZM586 39l2 1ZM554 39l2 1ZM522 39l2 1ZM490 39l2 1ZM458 39l2 1ZM426 39l2 1ZM298 39l2 1ZM266 39l2 1ZM74 39l2 1ZM42 39l2 1ZM10 39l2 1ZM602 33l2 1ZM570 33l2 1ZM538 33l2 1ZM506 33l2 1ZM474 33l2 1ZM442 33l2 1ZM410 33l2 1ZM378 33l2 1ZM346 33l2 1ZM314 33l2 1ZM282 33l2 1ZM250 33l2 1ZM218 33l2 1ZM186 33l2 1ZM154 33l2 1ZM122 33l2 1ZM90 33l2 1ZM58 33l2 1ZM26 33l2 1ZM580 32l2 1ZM548 32l2 1ZM516 32l2 1ZM484 32l2 1ZM452 32l2 1ZM420 32l2 1ZM388 32l2 1ZM356 32l2 1ZM324 32l2 1ZM292 32l2 1ZM260 32l2 1ZM228 32l2 1ZM196 32l2 1ZM164 32l2 1ZM132 32l2 1ZM100 32l2 1ZM68 32l2 1ZM36 32l2 1ZM4 32l2 1ZM608 31l2 1ZM589 31l2 1ZM576 31l2 1ZM557 31l2 1ZM544 31l2 1ZM525 31l2 1ZM512 31l2 1ZM493 31l2 1ZM480 31l2 1ZM461 31l2 1ZM448 31l2 1ZM429 31l2 1ZM416 31l2 1ZM397 31l2 1ZM384 31l2 1ZM365 31l2 1ZM352 31l2 1ZM333 31l2 1ZM320 31l2 1ZM301 31l2 1ZM288 31l2 1ZM269 31l2 1ZM256 31l2 1ZM237 31l2 1ZM224 31l2 1ZM205 31l2 1ZM192 31l2 1ZM173 31l2 1ZM160 31l2 1ZM141 31l2 1ZM128 31l2 1ZM109 31l2 1ZM96 31l2 1ZM77 31l2 1ZM64 31l2 1ZM45 31l2 1ZM32 31l2 1ZM13 31l2 1ZM0 31l2 1ZM583 30l2 1ZM551 30l2 1ZM519 30l2 1ZM487 30l2 1ZM455 30l2 1ZM423 30l2 1ZM391 30l2 1ZM359 30l2 1ZM327 30l2 1ZM295 30l2 1ZM263 30l2 1ZM231 30l2 1ZM199 30l2 1ZM167 30l2 1ZM135 30l2 1ZM103 30l2 1ZM71 30l2 1ZM39 30l2 1ZM7 30l2 1ZM596 13l2 1ZM564 13l2 1ZM532 13l2 1ZM500 13l2 1ZM468 13l2 1ZM436 13l2 1ZM404 13l2 1ZM372 13l2 1ZM340 13l2 1ZM308 13l2 1ZM276 13l2 1ZM244 13l2 1ZM212 13l2 1ZM180 13l2 1ZM148 13l2 1ZM116 13l2 1ZM84 13l2 1ZM52 13l2 1ZM20 13l2 1ZM586 7l2 1ZM554 7l2 1ZM522 7l2 1ZM490 7l2 1ZM458 7l2 1ZM426 7l2 1ZM394 7l2 1ZM362 7l2 1ZM330 7l2 1ZM298 7l2 1ZM266 7l2 1ZM234 7l2 1ZM202 7l2 1ZM170 7l2 1ZM138 7l2 1ZM106 7l2 1ZM74 7l2 1ZM42 7l2 1ZM10 7l2 1ZM602 1l2 1ZM570 1l2 1ZM538 1l2 1ZM506 1l2 1ZM474 1l2 1ZM442 1l2 1ZM410 1l2 1ZM378 1l2 1ZM346 1l2 1ZM314 1l2 1ZM282 1l2 1ZM250 1l2 1ZM218 1l2 1ZM186 1l2 1ZM154 1l2 1ZM122 1l2 1ZM90 1l2 1ZM58 1l2 1ZM26 1l2 1ZM580 0l2 1ZM548 0l2 1ZM516 0l2 1ZM484 0l2 1ZM452 0l2 1ZM420 0l2 1ZM388 0l2 1ZM356 0l2 1ZM324 0l2 1ZM292 0l2 1ZM260 0l2 1ZM228 0l2 1ZM196 0l2 1ZM164 0l2 1ZM132 0l2 1ZM100 0l2 1ZM68 0l2 1ZM36 0l2 1ZM4 0l2 1Z"/></svg>